<?xml version="1.0" standalone="no"?><!DOCTYPE svg PUBLIC "-//W3C//DTD SVG 1.1//EN" "http://www.w3.org/Graphics/SVG/1.1/DTD/svg11.dtd"><svg height="1024" node-id="1" sillyvg="true" template-height="1024" template-width="1024" version="1.1" viewBox="0 0 1024 1024" width="1024" xmlns="http://www.w3.org/2000/svg" xmlns:xlink="http://www.w3.org/1999/xlink"><defs node-id="180"><linearGradient gradientUnits="objectBoundingBox" id="linear-gradient-2" node-id="6" spreadMethod="pad" x1="0.035" x2="1.038" y1="0.62" y2="0.532"><stop offset="0" stop-color="#30e0c6"></stop><stop offset="1" stop-color="#b4f6e7"></stop></linearGradient><linearGradient gradientUnits="objectBoundingBox" id="linear-gradient-3" node-id="9" spreadMethod="pad" x1="0.5" x2="0.5" y1="0" y2="1"><stop offset="0" stop-color="#f8fefd"></stop><stop offset="1" stop-color="#e8fdfa"></stop></linearGradient><linearGradient gradientUnits="objectBoundingBox" id="linear-gradient-4" node-id="18" spreadMethod="pad" x1="0.478" x2="0.471" y1="0.309" y2="0.981"><stop offset="0" stop-color="#90bff3"></stop><stop offset="1" stop-color="#cadffa"></stop></linearGradient><linearGradient gradientUnits="objectBoundingBox" id="linear-gradient-5" node-id="21" spreadMethod="pad" x1="0.5" x2="0.5" y1="0" y2="1"><stop offset="0" stop-color="#ddeeff"></stop><stop offset="1" stop-color="#acd5ff"></stop></linearGradient><linearGradient gradientUnits="objectBoundingBox" id="linear-gradient-6" node-id="38" spreadMethod="pad" x1="0.5" x2="0.5" y1="0" y2="1"><stop offset="0" stop-color="#8caffd"></stop><stop offset="1" stop-color="#507ef7"></stop></linearGradient><linearGradient gradientUnits="objectBoundingBox" id="linear-gradient-7" node-id="41" spreadMethod="pad" x1="0" x2="1" y1="0.102" y2="0.752"><stop offset="0" stop-color="#abcbff"></stop><stop offset="0.248" stop-color="#7fb2ff"></stop><stop offset="1" stop-color="#4f7df7"></stop></linearGradient><linearGradient gradientUnits="objectBoundingBox" id="linear-gradient-8" node-id="45" spreadMethod="pad" x1="0.045" x2="1" y1="0" y2="0.974"><stop offset="0" stop-color="#aecdfd"></stop><stop offset="0.607" stop-color="#99bdfe"></stop><stop offset="0.639" stop-color="#b8d1fe"></stop><stop offset="0.665" stop-color="#8cb4f9"></stop><stop offset="1" stop-color="#9dbcfd"></stop></linearGradient><linearGradient gradientUnits="objectBoundingBox" id="linear-gradient-9" node-id="51" spreadMethod="pad" x1="0" x2="0.99" y1="0.261" y2="0.687"><stop offset="0" stop-color="#6e9dff"></stop><stop offset="1" stop-color="#5885f9"></stop></linearGradient><linearGradient gradientUnits="objectBoundingBox" id="linear-gradient-10" node-id="61" spreadMethod="pad" x1="0" x2="1" y1="0.272" y2="0.606"><stop offset="0" stop-color="#5b82fb"></stop><stop offset="1" stop-color="#3e68fd"></stop></linearGradient><linearGradient gradientUnits="objectBoundingBox" id="linear-gradient" node-id="3" spreadMethod="pad" x1="0.5" x2="0.459" y1="0.088" y2="0.814"><stop offset="0" stop-color="#466ffd"></stop><stop offset="1" stop-color="#97b2fd"></stop></linearGradient><linearGradient gradientUnits="objectBoundingBox" id="linear-gradient-12" node-id="66" spreadMethod="pad" x1="0.5" x2="0.5" y1="0" y2="0.76"><stop offset="0" stop-color="#8aa8e8"></stop><stop offset="1" stop-color="#a6c1fb"></stop></linearGradient><linearGradient gradientUnits="objectBoundingBox" id="linear-gradient-13" node-id="75" spreadMethod="pad" x1="0.5" x2="0.5" y1="0" y2="1"><stop offset="0" stop-color="#87a6ff"></stop><stop offset="1" stop-color="#275dff"></stop></linearGradient><linearGradient gradientUnits="objectBoundingBox" id="linear-gradient-14" node-id="78" spreadMethod="pad" x1="0.5" x2="0.5" y1="0" y2="1"><stop offset="0" stop-color="#98b3ff"></stop><stop offset="1" stop-color="#376dff"></stop></linearGradient><linearGradient gradientUnits="objectBoundingBox" id="linearGradient1" node-id="268" spreadMethod="pad" x1="0.5" x2="0.5" y1="0" y2="1"><stop offset="0" stop-color="#accdff"></stop><stop offset="1" stop-color="#428dfc"></stop></linearGradient><linearGradient gradientUnits="objectBoundingBox" id="linearGradient2" node-id="275" spreadMethod="pad" x1="0.5" x2="0.5" y1="0" y2="1"><stop offset="0" stop-color="#aaccff"></stop><stop offset="1" stop-color="#5699ff"></stop></linearGradient><linearGradient gradientUnits="objectBoundingBox" id="linear-gradient-15" node-id="87" spreadMethod="pad" x1="0.5" x2="0.5" y1="0" y2="1"><stop offset="0" stop-color="#accdff"></stop><stop offset="1" stop-color="#428dfc"></stop></linearGradient><linearGradient gradientUnits="objectBoundingBox" id="linear-gradient-16" node-id="90" spreadMethod="pad" x1="0.5" x2="0.5" y1="0" y2="1"><stop offset="0" stop-color="#aaccff"></stop><stop offset="1" stop-color="#5699ff"></stop></linearGradient><filter height="37.14499" id="联合_280" node-id="12" width="27.707" x="226.583" y="464.27"><feOffset color-interpolation-filters="linearRGB" dx="0" dy="-1" in="SourceGraphic" result="result1"></feOffset><feGaussianBlur color-interpolation-filters="linearRGB" in="result1" result="blur" stdDeviation="0 0"></feGaussianBlur><feFlood color-interpolation-filters="linearRGB" flood-color="#1cbdcc" result="result3"></feFlood><feComposite color-interpolation-filters="linearRGB" in="result3" in2="blur" operator="in" result="result4"></feComposite><feComposite color-interpolation-filters="linearRGB" in="SourceGraphic" in2="result4" operator="over" result="result5"></feComposite></filter><filter height="165.59161" id="路径_1553" node-id="24" width="250.02296" x="250.8123" y="565.2077"><feOffset color-interpolation-filters="linearRGB" dx="0" dy="30" in="SourceGraphic" result="result1"></feOffset><feGaussianBlur color-interpolation-filters="linearRGB" in="result1" result="blur-2" stdDeviation="5 5"></feGaussianBlur><feFlood color-interpolation-filters="linearRGB" flood-color="#ffffff" result="color"></feFlood><feComposite color-interpolation-filters="linearRGB" in="SourceGraphic" in2="blur-2" operator="out" result="result4"></feComposite><feComposite color-interpolation-filters="linearRGB" in="color" in2="result4" operator="in" result="result5"></feComposite><feComposite color-interpolation-filters="linearRGB" in="result5" in2="SourceGraphic" operator="in" result="result6"></feComposite></filter><filter height="143.30365" id="路径_1580" node-id="31" width="250.02296" x="250.8123" y="585.63837"><feOffset color-interpolation-filters="linearRGB" dx="0" dy="-3" in="SourceGraphic" result="result1"></feOffset><feGaussianBlur color-interpolation-filters="linearRGB" in="result1" result="blur-3" stdDeviation="5 5"></feGaussianBlur><feFlood color-interpolation-filters="linearRGB" flood-color="#ffffff" flood-opacity="0.239" result="color-2"></feFlood><feComposite color-interpolation-filters="linearRGB" in="SourceGraphic" in2="blur-3" operator="out" result="result4"></feComposite><feComposite color-interpolation-filters="linearRGB" in="color-2" in2="result4" operator="in" result="result5"></feComposite><feComposite color-interpolation-filters="linearRGB" in="result5" in2="SourceGraphic" operator="in" result="result6"></feComposite></filter><filter height="741.49396" id="路径_1559" node-id="54" width="564.7213" x="327.20154" y="53.4686"><feOffset color-interpolation-filters="linearRGB" dx="22" dy="-22" in="SourceGraphic" result="result1"></feOffset><feGaussianBlur color-interpolation-filters="linearRGB" in="result1" result="blur-4" stdDeviation="4 4"></feGaussianBlur><feFlood color-interpolation-filters="linearRGB" flood-color="#ffffff" flood-opacity="0.129" result="color-3"></feFlood><feComposite color-interpolation-filters="linearRGB" in="SourceGraphic" in2="blur-4" operator="out" result="result4"></feComposite><feComposite color-interpolation-filters="linearRGB" in="color-3" in2="result4" operator="in" result="result5"></feComposite><feComposite color-interpolation-filters="linearRGB" in="result5" in2="SourceGraphic" operator="in" result="result6"></feComposite></filter><filter height="144.276" id="路径_1513" node-id="69" width="53.903015" x="747.185" y="689.082"><feOffset color-interpolation-filters="linearRGB" dx="0" dy="3" in="SourceGraphic" result="result1"></feOffset><feGaussianBlur color-interpolation-filters="linearRGB" in="result1" result="blur-5" stdDeviation="3 3"></feGaussianBlur><feFlood color-interpolation-filters="linearRGB" flood-color="#000000" flood-opacity="0.141" result="result3"></feFlood><feComposite color-interpolation-filters="linearRGB" in="result3" in2="blur-5" operator="in" result="result4"></feComposite><feComposite color-interpolation-filters="linearRGB" in="SourceGraphic" in2="result4" operator="over" result="result5"></feComposite></filter><filter height="118.276" id="路径_1513-2" node-id="81" width="53.903015" x="692.542" y="755.082"><feOffset color-interpolation-filters="linearRGB" dx="0" dy="3" in="SourceGraphic" result="result1"></feOffset><feGaussianBlur color-interpolation-filters="linearRGB" in="result1" result="blur-6" stdDeviation="3 3"></feGaussianBlur><feFlood color-interpolation-filters="linearRGB" flood-color="#000000" flood-opacity="0.141" result="result3"></feFlood><feComposite color-interpolation-filters="linearRGB" in="result3" in2="blur-6" operator="in" result="result4"></feComposite><feComposite color-interpolation-filters="linearRGB" in="SourceGraphic" in2="result4" operator="over" result="result5"></feComposite></filter><filter height="100.276" id="路径_1513-3" node-id="93" width="53.903015" x="636.542" y="814.082"><feOffset color-interpolation-filters="linearRGB" dx="0" dy="3" in="SourceGraphic" result="result1"></feOffset><feGaussianBlur color-interpolation-filters="linearRGB" in="result1" result="blur-7" stdDeviation="3 3"></feGaussianBlur><feFlood color-interpolation-filters="linearRGB" flood-color="#000000" flood-opacity="0.141" result="result3"></feFlood><feComposite color-interpolation-filters="linearRGB" in="result3" in2="blur-7" operator="in" result="result4"></feComposite><feComposite color-interpolation-filters="linearRGB" in="SourceGraphic" in2="result4" operator="over" result="result5"></feComposite></filter><clipPath id="clip-人脸识别" node-id="99"><path d="M 0.00 0.00 L 1024.00 0.00 L 1024.00 1024.00 L 0.00 1024.00 Z" fill="#000000" fill-rule="nonzero" node-id="385" stroke="none" target-height="1024" target-width="1024" target-x="0" target-y="0"></path></clipPath><clipPath id="clip-path" node-id="64"><path d="M 518.60 271.60 L 518.80 267.70 L 519.30 266.30 L 521.00 264.90 L 523.50 265.00 L 530.50 267.20 L 553.90 276.40 L 566.70 282.00 L 576.80 287.10 L 604.00 302.10 L 631.20 318.10 L 641.30 324.60 L 674.20 347.00 L 692.70 360.10 L 696.30 363.00 L 697.70 366.00 L 698.50 371.60 L 698.60 376.00 L 698.30 562.90 L 697.90 564.50 L 696.40 566.50 L 694.60 567.10 L 691.90 566.40 L 690.10 565.40 L 680.10 557.50 L 669.60 549.90 L 646.60 534.30 L 628.90 522.90 L 604.00 507.70 L 590.70 500.20 L 578.70 493.90 L 526.70 469.90 L 522.10 466.80 L 520.10 464.10 L 518.90 459.70 L 518.70 455.80 L 518.60 271.60 Z" fill="#000000" fill-rule="nonzero" id="路径_1574" node-id="65" stroke="none" target-height="302.19998" target-width="180" target-x="518.6" target-y="264.9"></path></clipPath></defs><g clip-path="url(#clip-人脸识别)" id="人脸识别" node-id="101"><path d="M 0.00 0.00 L 1024.00 0.00 L 1024.00 1024.00 L 0.00 1024.00 Z" fill="#ffffff" fill-rule="nonzero" node-id="393" stroke="none" target-height="1024" target-width="1024" target-x="0" target-y="0"></path><path d="M 190.60 319.10 L 175.00 328.50 L 170.40 332.60 L 167.40 337.20 L 166.30 339.90 L 165.70 343.00 L 165.40 346.70 L 165.10 531.50 L 165.70 533.90 L 166.70 536.20 L 168.20 538.30 L 169.60 539.40 L 171.20 540.10 L 173.20 540.50 L 175.20 540.40 L 177.80 539.70 L 181.10 538.20 L 188.20 534.00 L 267.90 485.50 L 271.40 481.90 L 274.80 476.80 L 276.20 473.70 L 277.10 470.40 L 277.50 466.90 L 279.00 286.70 L 278.10 283.60 L 277.10 281.70 L 275.60 279.80 L 273.90 278.20 L 271.90 277.10 L 270.40 276.80 L 268.80 276.80 L 267.00 277.40 L 254.60 283.70 L 248.80 287.10 L 244.80 290.10 L 243.00 292.20 L 236.80 303.50 L 235.20 305.50 L 231.70 308.00 L 226.20 311.20 L 214.70 317.10 L 210.30 318.90 L 208.00 318.20 L 203.50 315.00 L 202.00 314.40 L 200.20 314.40 L 198.40 314.90 L 190.60 319.10 Z" fill="#81e7d0" fill-rule="nonzero" group-id="1,5" id="路径_1543" node-id="104" stroke="none" target-height="263.7" target-width="113.899994" target-x="165.1" target-y="276.8"></path><path d="M 196.00 325.60 L 182.60 332.80 L 180.00 334.50 L 175.40 338.60 L 172.40 343.20 L 171.30 345.90 L 170.70 349.00 L 170.40 352.70 L 170.70 535.00 L 171.60 539.10 L 172.40 540.90 L 173.70 542.40 L 174.70 543.10 L 177.60 543.70 L 179.20 543.50 L 183.80 541.50 L 271.60 492.40 L 274.70 489.90 L 276.40 487.90 L 279.80 482.80 L 281.20 479.70 L 282.10 476.40 L 282.50 472.90 L 282.70 292.40 L 282.40 289.20 L 281.00 285.20 L 279.10 283.20 L 277.70 282.60 L 276.30 282.30 L 274.40 282.60 L 272.00 283.40 L 262.80 287.90 L 255.10 292.30 L 249.80 296.10 L 248.00 298.20 L 241.80 309.50 L 240.20 311.50 L 236.10 314.60 L 230.00 318.20 L 220.30 323.20 L 218.50 323.90 L 214.80 324.20 L 211.10 323.40 L 207.90 321.90 L 206.10 321.80 L 202.20 322.70 L 196.00 325.60 Z" fill="url(#linear-gradient-2)" fill-rule="nonzero" group-id="1,6" id="路径_1544" node-id="105" stroke="none" target-height="261.40002" target-width="112.30002" target-x="170.4" target-y="282.3"></path><path d="M 224.40 415.20 L 224.70 424.20 L 224.10 427.20 L 223.20 428.20 L 212.20 436.90 L 209.00 439.70 L 206.20 442.80 L 204.00 445.80 L 201.80 450.10 L 200.00 454.40 L 197.70 461.90 L 196.90 466.40 L 200.10 465.20 L 220.20 454.30 L 270.70 425.20 L 270.80 422.00 L 270.00 417.70 L 269.10 415.50 L 267.00 413.20 L 265.50 412.20 L 263.80 411.70 L 259.60 411.50 L 253.20 412.90 L 245.60 415.90 L 244.60 414.10 L 243.00 409.90 L 242.10 405.20 L 241.80 404.70 L 241.30 404.40 L 238.30 405.50 L 235.70 406.90 L 224.40 415.20 Z" fill="#c9f9f0" fill-rule="nonzero" group-id="1,7" id="路径_1546" node-id="106" stroke="none" target-height="62" target-width="73.899994" target-x="196.9" target-y="404.4"></path><path d="M 221.40 405.80 L 219.50 402.60 L 218.70 399.00 L 218.80 397.20 L 220.20 392.10 L 222.00 388.70 L 224.20 385.50 L 226.90 382.40 L 229.80 379.60 L 233.00 377.30 L 235.30 376.00 L 237.50 375.30 L 239.60 375.00 L 241.80 375.10 L 243.60 375.60 L 245.20 376.40 L 246.50 377.70 L 247.30 379.20 L 247.60 381.30 L 247.40 386.10 L 246.00 390.90 L 246.80 390.20 L 248.10 390.00 L 248.90 391.00 L 249.00 392.40 L 248.40 395.90 L 247.70 397.70 L 246.10 400.50 L 241.40 411.10 L 239.80 413.70 L 237.10 416.60 L 235.70 417.50 L 232.70 418.60 L 230.40 418.90 L 228.30 418.70 L 226.60 418.00 L 220.30 413.70 L 218.50 410.80 L 218.20 409.30 L 218.30 407.50 L 218.80 406.10 L 220.10 405.40 L 221.40 405.80 Z" fill="url(#linear-gradient-3)" fill-rule="nonzero" group-id="1,8" id="路径_1545" node-id="107" stroke="none" target-height="43.899994" target-width="30.800003" target-x="218.2" target-y="375"></path><path d="M 194.80 443.70 L 197.90 441.00 L 198.40 462.60 L 216.90 452.40 L 216.90 456.30 L 195.30 468.90 Z M 249.50 433.20 L 268.10 422.20 L 268.10 402.70 L 271.60 399.60 L 271.60 424.60 L 249.50 438.20 Z M 194.90 379.40 L 215.50 367.70 L 215.50 371.80 L 197.90 381.70 L 197.90 402.10 L 194.90 404.00 Z M 268.30 341.90 L 250.00 352.00 L 250.00 347.80 L 271.40 336.20 L 271.70 359.80 L 268.30 362.10 Z" fill="#eff4ff" fill-rule="nonzero" group-id="1,9" id="联合_278" node-id="108" stroke="none" target-height="132.69998" target-width="76.90001" target-x="194.8" target-y="336.2"></path><path d="M 195.80 444.70 L 198.90 442.00 L 199.40 463.60 L 217.90 453.40 L 217.90 457.30 L 196.30 469.90 Z M 250.50 434.20 L 269.10 423.20 L 269.10 403.70 L 272.60 400.60 L 272.60 425.60 L 250.50 439.20 Z M 195.90 380.40 L 216.50 368.70 L 216.50 372.80 L 198.90 382.70 L 198.90 403.10 L 195.90 405.00 Z M 269.30 342.90 L 251.00 353.00 L 251.00 348.80 L 272.40 337.20 L 272.70 360.80 L 269.30 363.10 Z" fill="#ffffff" fill-rule="nonzero" group-id="1,10" id="联合_279" node-id="109" stroke="none" target-height="132.69998" target-width="76.90001" target-x="195.8" target-y="337.2"></path><path d="M 230.90 500.50 L 228.60 498.50 L 227.80 497.10 L 226.90 494.60 L 226.60 491.60 L 226.90 487.90 L 227.60 484.40 L 228.80 481.00 L 230.40 477.80 L 232.50 474.40 L 235.00 471.40 L 238.00 468.70 L 240.30 467.10 L 242.50 466.10 L 246.40 465.30 L 248.20 465.50 L 250.00 466.20 L 252.20 468.20 L 253.10 469.60 L 253.90 472.00 L 254.30 475.10 L 254.00 478.70 L 253.30 482.30 L 252.10 485.70 L 250.50 488.90 L 248.40 492.30 L 245.80 495.30 L 242.90 498.00 L 240.60 499.60 L 238.40 500.60 L 234.50 501.40 L 232.60 501.20 L 230.90 500.50 Z M 232.10 478.70 L 230.00 483.80 L 229.40 486.30 L 229.30 490.90 L 230.40 494.60 L 231.50 496.00 L 232.80 497.00 L 234.30 497.60 L 235.90 497.80 L 238.10 497.50 L 240.50 496.50 L 242.70 495.10 L 244.90 493.10 L 246.90 490.80 L 250.00 485.30 L 251.50 479.80 L 251.70 476.90 L 251.30 474.40 L 250.60 472.50 L 249.50 470.80 L 248.00 469.70 L 246.50 469.10 L 245.00 468.90 L 242.80 469.20 L 240.40 470.10 L 238.20 471.60 L 235.90 473.60 L 233.90 475.90 L 232.10 478.70 Z M 236.20 492.00 L 235.20 491.10 L 234.60 489.60 L 234.50 487.90 L 234.70 485.80 L 236.50 481.20 L 237.90 479.00 L 239.40 477.20 L 241.10 475.90 L 242.70 475.10 L 244.30 474.80 L 245.50 475.10 L 246.50 476.10 L 247.10 477.50 L 247.30 479.30 L 247.00 481.40 L 245.20 486.00 L 243.40 488.70 L 241.50 490.60 L 238.80 492.20 L 237.60 492.40 L 236.20 492.00 Z" fill="#e6fdfa" fill-rule="nonzero" filter="url(#联合_280)" group-id="1,11,37" id="联合_280-2" node-id="111" stroke="none" target-height="36.100006" target-width="27.699997" target-x="226.6" target-y="465.3"></path><path d="M 380.60 605.10 L 393.40 605.80 L 405.70 606.80 L 417.60 608.20 L 429.00 610.00 L 440.10 612.20 L 451.30 614.80 L 462.10 617.70 L 472.30 620.90 L 482.10 624.50 L 491.50 628.30 L 500.90 632.60 L 509.70 637.20 L 518.10 642.10 L 525.90 647.20 L 533.30 652.60 L 540.50 658.40 L 547.20 664.50 L 553.30 670.80 L 559.00 677.30 L 564.10 684.00 L 568.90 691.10 L 573.10 698.40 L 576.70 706.00 L 579.90 713.70 L 582.50 721.70 L 581.20 745.60 L 578.50 773.60 L 576.80 779.90 L 575.20 783.90 L 570.70 791.80 L 567.70 796.30 L 560.80 805.00 L 552.30 814.00 L 547.60 818.30 L 535.50 827.80 L 527.90 832.90 L 519.60 838.00 L 510.50 843.00 L 501.50 847.50 L 491.80 851.70 L 481.50 855.80 L 470.60 859.50 L 459.60 862.80 L 448.20 865.60 L 436.20 868.10 L 423.70 870.10 L 411.30 871.60 L 398.40 872.60 L 385.00 873.00 L 371.20 872.80 L 356.90 872.10 L 342.90 870.90 L 329.40 869.20 L 316.20 867.00 L 303.00 864.40 L 290.30 861.30 L 278.30 857.80 L 266.80 853.90 L 257.50 850.40 L 240.50 842.60 L 225.20 833.90 L 217.90 829.00 L 211.10 823.90 L 204.80 818.60 L 199.00 813.10 L 193.70 807.50 L 188.80 801.40 L 184.40 795.10 L 180.60 788.60 L 177.30 781.90 L 174.50 775.00 L 172.70 769.10 L 171.30 763.10 L 170.30 756.80 L 169.70 750.40 L 169.60 743.80 L 170.90 711.60 L 172.70 704.30 L 174.90 697.40 L 177.60 690.70 L 180.70 684.30 L 184.20 678.10 L 188.20 672.10 L 193.40 665.40 L 199.20 658.90 L 205.60 652.80 L 212.60 647.00 L 220.20 641.50 L 228.00 636.60 L 236.30 631.90 L 245.20 627.60 L 254.60 623.60 L 264.60 619.90 L 274.50 616.80 L 284.90 614.00 L 295.70 611.60 L 307.10 609.50 L 318.90 607.70 L 330.50 606.40 L 354.80 605.00 L 380.60 605.10 Z" fill="#d9e1f7" fill-rule="nonzero" group-id="2,12" id="路径_1552" node-id="113" stroke="none" target-height="268" target-width="412.9" target-x="169.6" target-y="605"></path><path d="M 583.00 708.00 L 582.70 714.50 L 581.80 720.90 L 580.30 727.20 L 578.30 733.50 L 575.60 739.60 L 572.60 745.50 L 569.00 751.30 L 564.80 756.90 L 560.10 762.50 L 554.90 768.10 L 549.40 773.10 L 543.50 778.10 L 537.10 782.90 L 530.10 787.60 L 522.70 792.10 L 513.20 797.30 L 503.20 802.10 L 492.40 806.60 L 481.00 810.80 L 469.50 814.40 L 457.50 817.60 L 444.90 820.40 L 431.80 822.70 L 418.70 824.60 L 405.20 825.90 L 391.30 826.70 L 377.00 827.00 L 362.70 826.70 L 348.80 825.90 L 335.30 824.60 L 322.20 822.70 L 309.10 820.40 L 296.50 817.60 L 284.50 814.40 L 273.00 810.80 L 261.60 806.60 L 250.80 802.10 L 240.80 797.30 L 231.30 792.10 L 223.90 787.60 L 216.90 782.90 L 210.50 778.10 L 204.60 773.10 L 199.10 768.10 L 193.90 762.50 L 189.20 756.90 L 185.00 751.30 L 181.40 745.50 L 178.40 739.60 L 175.70 733.50 L 173.70 727.20 L 172.20 720.90 L 171.30 714.50 L 171.00 708.00 L 171.30 701.50 L 172.20 695.10 L 173.70 688.80 L 175.70 682.50 L 178.40 676.40 L 181.40 670.50 L 185.00 664.70 L 189.20 659.10 L 193.90 653.50 L 199.10 647.90 L 204.60 642.90 L 210.50 637.90 L 216.90 633.10 L 223.90 628.40 L 231.30 623.90 L 240.80 618.70 L 250.80 613.90 L 261.60 609.40 L 273.00 605.20 L 284.50 601.60 L 296.50 598.40 L 309.10 595.60 L 322.20 593.30 L 335.30 591.40 L 348.80 590.10 L 362.70 589.30 L 377.00 589.00 L 391.30 589.30 L 405.20 590.10 L 418.70 591.40 L 431.80 593.30 L 444.90 595.60 L 457.50 598.40 L 469.50 601.60 L 481.00 605.20 L 492.40 609.40 L 503.20 613.90 L 513.20 618.70 L 522.70 623.90 L 530.10 628.40 L 537.10 633.10 L 543.50 637.90 L 549.40 642.90 L 554.90 647.90 L 560.10 653.50 L 564.80 659.10 L 569.00 664.70 L 572.60 670.50 L 575.60 676.40 L 578.30 682.50 L 580.30 688.80 L 581.80 695.10 L 582.70 701.50 L 583.00 708.00 Z" fill="#f1f2f9" fill-rule="nonzero" group-id="2,13" node-id="434" stroke="none" target-height="238" target-width="412" target-x="171" target-y="589"></path><path d="M 582.00 708.00 L 581.70 714.50 L 580.80 720.80 L 579.30 727.10 L 577.30 733.30 L 574.70 739.40 L 571.60 745.20 L 568.00 750.90 L 563.90 756.50 L 559.30 762.10 L 554.00 767.60 L 548.60 772.60 L 542.70 777.50 L 536.30 782.30 L 529.40 786.90 L 522.00 791.40 L 512.60 796.50 L 502.60 801.30 L 491.90 805.70 L 480.50 809.90 L 469.00 813.50 L 457.10 816.70 L 444.60 819.40 L 431.50 821.80 L 418.50 823.60 L 405.10 824.90 L 391.20 825.70 L 377.00 826.00 L 362.80 825.70 L 348.90 824.90 L 335.50 823.60 L 322.50 821.80 L 309.40 819.40 L 296.90 816.70 L 285.00 813.50 L 273.50 809.90 L 262.10 805.70 L 251.40 801.30 L 241.40 796.50 L 232.00 791.40 L 224.60 786.90 L 217.70 782.30 L 211.30 777.50 L 205.40 772.60 L 200.00 767.60 L 194.70 762.10 L 190.10 756.50 L 186.00 750.90 L 182.40 745.20 L 179.30 739.40 L 176.70 733.30 L 174.70 727.10 L 173.20 720.80 L 172.30 714.50 L 172.00 708.00 L 172.30 701.50 L 173.20 695.20 L 174.70 688.90 L 176.70 682.70 L 179.30 676.60 L 182.40 670.80 L 186.00 665.10 L 190.10 659.50 L 194.70 653.90 L 200.00 648.40 L 205.40 643.40 L 211.30 638.50 L 217.70 633.70 L 224.60 629.10 L 232.00 624.60 L 241.40 619.50 L 251.40 614.70 L 262.10 610.30 L 273.50 606.10 L 285.00 602.50 L 296.90 599.30 L 309.40 596.60 L 322.50 594.20 L 335.50 592.40 L 348.90 591.10 L 362.80 590.30 L 377.00 590.00 L 391.20 590.30 L 405.10 591.10 L 418.50 592.40 L 431.50 594.20 L 444.60 596.60 L 457.10 599.30 L 469.00 602.50 L 480.50 606.10 L 491.90 610.30 L 502.60 614.70 L 512.60 619.50 L 522.00 624.60 L 529.40 629.10 L 536.30 633.70 L 542.70 638.50 L 548.60 643.40 L 554.00 648.40 L 559.30 653.90 L 563.90 659.50 L 568.00 665.10 L 571.60 670.80 L 574.70 676.60 L 577.30 682.70 L 579.30 688.90 L 580.80 695.20 L 581.70 701.50 L 582.00 708.00 Z" fill="none" group-id="2,13" node-id="436" stroke="#ffffff" stroke-linecap="butt" stroke-width="2" target-height="236" target-width="410" target-x="172" target-y="590"></path><path d="M 376.00 627.00 L 414.40 626.60 L 426.40 626.70 L 434.40 627.10 L 448.70 628.60 L 455.60 630.00 L 461.70 631.70 L 467.10 633.80 L 471.00 635.80 L 474.40 638.20 L 477.40 640.80 L 480.00 643.80 L 480.00 686.50 L 479.80 690.40 L 479.10 694.20 L 478.10 698.00 L 476.60 701.70 L 474.70 705.30 L 471.90 709.60 L 468.50 713.70 L 464.60 717.70 L 459.90 721.60 L 455.10 725.10 L 449.80 728.40 L 443.90 731.60 L 437.40 734.50 L 424.00 739.30 L 408.90 743.00 L 401.10 744.30 L 384.70 745.80 L 376.00 746.00 L 367.30 745.80 L 350.90 744.30 L 343.10 743.00 L 328.00 739.30 L 314.60 734.50 L 308.10 731.60 L 302.20 728.40 L 296.90 725.10 L 292.10 721.60 L 287.40 717.70 L 283.50 713.70 L 280.10 709.60 L 277.30 705.30 L 275.40 701.70 L 273.90 698.00 L 272.90 694.20 L 272.20 690.40 L 272.00 686.50 L 271.70 660.00 L 272.00 643.80 L 274.60 640.90 L 277.50 638.30 L 280.90 636.10 L 284.80 634.10 L 290.30 632.00 L 296.40 630.30 L 303.20 628.90 L 317.60 627.30 L 337.70 626.70 L 376.00 627.00 Z" fill="url(#linear-gradient-4)" fill-rule="nonzero" group-id="2,14" id="路径_1554" node-id="117" stroke="none" target-height="119.400024" target-width="208.29999" target-x="271.7" target-y="626.6"></path><path d="M 376.00 579.00 L 393.20 579.80 L 410.20 581.90 L 426.40 585.40 L 441.80 590.20 L 448.70 592.90 L 455.50 596.10 L 461.60 599.40 L 467.10 602.80 L 474.50 608.70 L 480.00 614.80 L 480.00 657.50 L 479.80 661.40 L 479.10 665.20 L 478.10 669.00 L 476.60 672.70 L 474.70 676.30 L 471.90 680.60 L 468.50 684.70 L 464.60 688.70 L 459.90 692.60 L 455.10 696.10 L 449.80 699.40 L 443.90 702.60 L 437.40 705.50 L 424.00 710.30 L 408.90 714.00 L 401.10 715.30 L 384.70 716.80 L 376.00 717.00 L 367.30 716.80 L 350.90 715.30 L 343.10 714.00 L 328.00 710.30 L 314.60 705.50 L 308.10 702.60 L 302.20 699.40 L 296.90 696.10 L 292.10 692.60 L 287.40 688.70 L 283.50 684.70 L 280.10 680.60 L 277.30 676.30 L 275.40 672.70 L 273.90 669.00 L 272.90 665.20 L 272.20 661.40 L 272.00 657.50 L 271.70 631.00 L 272.00 614.80 L 275.40 610.80 L 279.70 606.90 L 284.80 603.10 L 290.30 599.70 L 296.40 596.40 L 303.20 593.20 L 310.20 590.50 L 317.70 587.90 L 333.60 583.70 L 350.40 580.70 L 358.90 579.80 L 376.00 579.00 Z" fill="url(#linear-gradient-5)" fill-rule="nonzero" group-id="2,15,38" id="路径_1553-2" node-id="119" stroke="none" target-height="138" target-width="208.29999" target-x="271.7" target-y="579"></path><path d="M 376.00 579.00 L 393.20 579.80 L 410.20 581.90 L 426.40 585.40 L 441.80 590.20 L 448.70 592.90 L 455.50 596.10 L 461.60 599.40 L 467.10 602.80 L 474.50 608.70 L 480.00 614.80 L 480.00 657.50 L 479.80 661.40 L 479.10 665.20 L 478.10 669.00 L 476.60 672.70 L 474.70 676.30 L 471.90 680.60 L 468.50 684.70 L 464.60 688.70 L 459.90 692.60 L 455.10 696.10 L 449.80 699.40 L 443.90 702.60 L 437.40 705.50 L 424.00 710.30 L 408.90 714.00 L 401.10 715.30 L 384.70 716.80 L 376.00 717.00 L 367.30 716.80 L 350.90 715.30 L 343.10 714.00 L 328.00 710.30 L 314.60 705.50 L 308.10 702.60 L 302.20 699.40 L 296.90 696.10 L 292.10 692.60 L 287.40 688.70 L 283.50 684.70 L 280.10 680.60 L 277.30 676.30 L 275.40 672.70 L 273.90 669.00 L 272.90 665.20 L 272.20 661.40 L 272.00 657.50 L 271.70 631.00 L 272.00 614.80 L 275.40 610.80 L 279.70 606.90 L 284.80 603.10 L 290.30 599.70 L 296.40 596.40 L 303.20 593.20 L 310.20 590.50 L 317.70 587.90 L 333.60 583.70 L 350.40 580.70 L 358.90 579.80 L 376.00 579.00 Z" fill="#ffffff" fill-rule="nonzero" filter="url(#路径_1553)" group-id="2,15,39,68" id="路径_1553-3" node-id="121" stroke="none" target-height="138" target-width="208.29999" target-x="271.7" target-y="579"></path><path d="M 376.00 598.00 L 414.40 597.60 L 426.40 597.70 L 434.40 598.10 L 448.70 599.60 L 455.60 601.00 L 461.70 602.70 L 467.10 604.80 L 471.00 606.80 L 474.40 609.20 L 477.40 611.80 L 480.00 614.80 L 480.00 657.50 L 479.80 661.40 L 479.10 665.20 L 478.10 669.00 L 476.60 672.70 L 474.70 676.30 L 471.90 680.60 L 468.50 684.70 L 464.60 688.70 L 459.90 692.60 L 455.10 696.10 L 449.80 699.40 L 443.90 702.60 L 437.40 705.50 L 424.00 710.30 L 408.90 714.00 L 401.10 715.30 L 384.70 716.80 L 376.00 717.00 L 367.30 716.80 L 350.90 715.30 L 343.10 714.00 L 328.00 710.30 L 314.60 705.50 L 308.10 702.60 L 302.20 699.40 L 296.90 696.10 L 292.10 692.60 L 287.40 688.70 L 283.50 684.70 L 280.10 680.60 L 277.30 676.30 L 275.40 672.70 L 273.90 669.00 L 272.90 665.20 L 272.20 661.40 L 272.00 657.50 L 271.70 631.00 L 272.00 614.80 L 274.60 611.90 L 277.50 609.30 L 280.90 607.10 L 284.80 605.10 L 290.30 603.00 L 296.40 601.30 L 303.20 599.90 L 317.60 598.30 L 337.70 597.70 L 376.00 598.00 Z" fill="#ffffff" fill-rule="nonzero" filter="url(#路径_1580)" group-id="2,16,40" id="路径_1580-2" node-id="123" stroke="none" target-height="119.400024" target-width="208.29999" target-x="271.7" target-y="597.6"></path><path d="M 480.00 610.50 L 479.80 614.40 L 479.10 618.20 L 478.10 622.00 L 476.60 625.70 L 474.70 629.30 L 471.90 633.60 L 468.50 637.70 L 464.60 641.70 L 459.90 645.60 L 455.10 649.10 L 449.80 652.40 L 443.90 655.60 L 437.40 658.50 L 424.00 663.30 L 416.70 665.30 L 401.10 668.30 L 393.00 669.20 L 376.00 670.00 L 359.00 669.20 L 350.90 668.30 L 335.30 665.30 L 328.00 663.30 L 314.60 658.50 L 308.10 655.60 L 302.20 652.40 L 296.90 649.10 L 292.10 645.60 L 287.40 641.70 L 283.50 637.70 L 280.10 633.60 L 277.30 629.30 L 275.40 625.70 L 273.90 622.00 L 272.90 618.20 L 272.20 614.40 L 272.00 610.50 L 272.20 606.60 L 272.90 602.80 L 273.90 599.00 L 275.40 595.30 L 277.30 591.70 L 280.10 587.40 L 283.50 583.30 L 287.40 579.30 L 292.10 575.40 L 296.90 571.90 L 302.20 568.60 L 308.10 565.40 L 314.60 562.50 L 328.00 557.70 L 335.30 555.70 L 350.90 552.70 L 359.00 551.80 L 376.00 551.00 L 393.00 551.80 L 401.10 552.70 L 416.70 555.70 L 424.00 557.70 L 437.40 562.50 L 443.90 565.40 L 449.80 568.60 L 455.10 571.90 L 459.90 575.40 L 464.60 579.30 L 468.50 583.30 L 471.90 587.40 L 474.70 591.70 L 476.60 595.30 L 478.10 599.00 L 479.10 602.80 L 479.80 606.60 L 480.00 610.50 Z" fill="#e8f3ff" fill-opacity="0.47" fill-rule="nonzero" group-id="2,17" node-id="465" stroke="none" target-height="119" target-width="208" target-x="272" target-y="551"></path><path d="M 479.50 610.50 L 479.30 614.40 L 478.60 618.20 L 477.60 621.90 L 476.10 625.50 L 474.20 629.10 L 471.40 633.40 L 468.10 637.50 L 464.10 641.40 L 459.50 645.30 L 454.70 648.80 L 449.40 652.10 L 443.60 655.20 L 437.10 658.10 L 423.80 662.90 L 416.50 664.80 L 401.00 667.80 L 393.00 668.70 L 376.00 669.50 L 359.00 668.70 L 351.00 667.80 L 335.50 664.80 L 328.20 662.90 L 314.90 658.10 L 308.40 655.20 L 302.60 652.10 L 297.30 648.80 L 292.50 645.30 L 287.90 641.40 L 283.90 637.50 L 280.60 633.40 L 277.80 629.10 L 275.90 625.50 L 274.40 621.90 L 273.40 618.20 L 272.70 614.40 L 272.50 610.50 L 272.70 606.60 L 273.40 602.80 L 274.40 599.10 L 275.90 595.50 L 277.80 591.90 L 280.60 587.60 L 283.90 583.50 L 287.90 579.60 L 292.50 575.70 L 297.30 572.20 L 302.60 568.90 L 308.40 565.80 L 314.90 562.90 L 328.20 558.10 L 335.50 556.20 L 351.00 553.20 L 359.00 552.30 L 376.00 551.50 L 393.00 552.30 L 401.00 553.20 L 416.50 556.20 L 423.80 558.10 L 437.10 562.90 L 443.60 565.80 L 449.40 568.90 L 454.70 572.20 L 459.50 575.70 L 464.10 579.60 L 468.10 583.50 L 471.40 587.60 L 474.20 591.90 L 476.10 595.50 L 477.60 599.10 L 478.60 602.80 L 479.30 606.60 L 479.50 610.50 Z" fill="none" group-id="2,17" node-id="467" stroke="#ffffff" stroke-linecap="butt" stroke-opacity="0.47" stroke-width="1" target-height="118" target-width="207" target-x="272.5" target-y="551.5"></path><path d="M 349.60 489.90 L 347.00 489.20 L 345.30 489.50 L 344.70 490.20 L 344.00 491.60 L 343.90 493.10 L 345.00 497.80 L 348.60 506.30 L 351.30 511.10 L 355.00 515.90 L 356.10 518.20 L 356.80 520.70 L 356.70 526.70 L 355.60 534.10 L 353.40 540.30 L 349.50 546.00 L 348.90 547.50 L 348.80 549.00 L 349.20 551.20 L 350.30 553.40 L 353.40 557.20 L 358.00 560.90 L 402.10 568.40 L 402.60 564.00 L 398.80 555.20 L 396.30 545.70 L 395.60 538.20 L 396.10 527.50 L 396.50 525.90 L 396.70 525.70 L 397.00 526.00 L 397.90 530.20 L 400.30 530.50 L 402.50 530.30 L 404.70 529.50 L 406.60 528.30 L 408.20 526.80 L 409.50 524.80 L 410.60 522.20 L 411.20 519.90 L 411.00 516.00 L 409.70 512.50 L 406.20 508.30 L 404.90 507.60 L 401.70 506.70 L 393.10 505.40 L 382.70 504.40 L 362.10 503.30 Z" fill="#c3dbfd" fill-rule="nonzero" group-id="2,18" id="路径_1555" node-id="127" stroke="none" target-height="79.20001" target-width="67.30002" target-x="343.9" target-y="489.2"></path><path d="M 347.00 463.20 L 348.60 460.10 L 350.10 458.10 L 352.00 456.10 L 354.60 454.00 L 358.90 451.90 L 364.30 450.70 L 371.30 451.00 L 375.00 451.90 L 378.60 453.10 L 382.10 454.80 L 387.10 457.90 L 391.80 461.40 L 399.80 469.00 L 405.40 475.70 L 408.20 479.60 L 409.70 483.40 L 411.00 490.10 L 411.30 498.40 L 410.70 502.70 L 409.60 507.00 L 408.40 509.70 L 406.90 512.30 L 402.60 517.80 L 401.00 520.80 L 399.90 523.90 L 397.60 532.90 L 396.60 535.60 L 395.30 537.90 L 394.10 539.30 L 390.60 541.50 L 388.50 542.30 L 382.30 543.20 L 378.80 543.00 L 375.60 542.30 L 372.70 541.20 L 369.90 539.60 L 365.10 535.30 L 362.00 531.50 L 359.40 527.30 L 357.20 522.90 L 354.10 514.50 L 352.50 508.00 L 351.30 498.80 L 349.60 489.80 L 346.10 478.30 L 345.60 472.20 L 345.80 469.40 L 347.00 463.20 Z" fill="url(#linear-gradient-6)" fill-rule="nonzero" group-id="2,19" id="路径_1556" node-id="128" stroke="none" target-height="92.5" target-width="65.69998" target-x="345.6" target-y="450.7"></path><path d="M 302.80 545.90 L 317.00 541.70 L 327.20 539.90 L 335.60 539.60 L 341.40 540.70 L 344.60 542.00 L 349.50 544.70 L 361.50 554.80 L 366.50 557.80 L 369.80 559.30 L 374.40 560.80 L 383.10 562.80 L 389.50 563.60 L 394.90 563.80 L 404.50 563.00 L 408.80 564.60 L 417.30 569.80 L 427.20 577.10 L 436.80 584.90 L 444.30 591.60 L 448.00 595.70 L 448.10 596.70 L 447.70 598.10 L 446.50 600.20 L 442.70 604.30 L 439.80 606.80 L 432.90 611.30 L 428.60 613.50 L 424.10 615.40 L 419.20 617.00 L 413.80 618.30 L 408.30 619.20 L 402.40 619.60 L 396.10 619.40 L 390.20 618.60 L 379.00 616.10 L 373.80 614.20 L 366.90 611.30 L 360.50 608.10 L 354.40 604.50 L 343.20 596.50 L 331.40 586.10 L 325.80 580.40 L 320.60 574.70 L 316.20 568.80 L 308.90 557.70 L 302.80 545.90 Z" fill="url(#linear-gradient-7)" fill-rule="nonzero" group-id="2,20" id="路径_1557" node-id="129" stroke="none" target-height="80" target-width="145.30002" target-x="302.8" target-y="539.6"></path><path d="M 375.00 116.60 L 406.40 96.70 L 425.50 100.90 L 446.20 106.20 L 471.30 113.70 L 484.70 118.30 L 498.60 123.50 L 512.50 129.20 L 526.10 135.50 L 538.00 141.40 L 581.50 164.60 L 613.70 182.70 L 646.60 201.80 L 693.70 230.40 L 720.90 247.80 L 732.30 255.50 L 755.10 272.10 L 766.90 281.20 L 790.50 300.20 L 822.80 327.70 L 852.90 354.40 L 864.60 365.20 L 866.60 369.00 L 867.30 371.70 L 867.70 379.50 L 867.80 687.30 L 867.60 718.90 L 867.20 721.10 L 866.40 722.90 L 864.30 724.80 L 842.90 732.40 L 841.00 388.90 Z" fill="url(#linear-gradient-8)" fill-rule="nonzero" group-id="3,21" id="路径_1558" node-id="131" stroke="none" target-height="635.7" target-width="492.8" target-x="375" target-y="96.7"></path><path d="M 374.30 120.60 L 374.40 118.30 L 375.00 116.90 L 375.90 116.00 L 378.80 115.30 L 386.70 116.40 L 398.30 118.70 L 414.20 122.40 L 432.60 127.40 L 451.90 133.80 L 470.20 141.00 L 491.60 150.10 L 514.30 160.10 L 536.60 170.50 L 556.50 180.20 L 572.40 188.50 L 587.50 197.10 L 634.40 224.40 L 661.70 241.00 L 688.70 257.90 L 713.10 274.20 L 724.00 281.90 L 732.80 288.60 L 750.50 302.90 L 789.10 334.90 L 833.20 372.60 L 840.70 379.70 L 843.30 384.00 L 844.10 386.40 L 844.70 392.50 L 844.80 400.70 L 844.90 729.40 L 844.20 731.50 L 843.40 732.40 L 842.20 733.00 L 840.70 733.20 L 838.80 732.70 L 836.80 731.60 L 804.20 702.00 L 771.90 674.10 L 748.60 655.00 L 735.40 645.20 L 705.10 624.80 L 680.70 608.90 L 629.70 577.40 L 607.30 564.20 L 589.50 554.50 L 525.90 521.70 L 495.90 507.50 L 480.50 500.80 L 464.90 494.60 L 449.50 489.20 L 425.00 481.50 L 407.30 476.40 L 391.70 472.40 L 374.50 468.90 Z" fill="url(#linear-gradient-9)" fill-rule="nonzero" group-id="3,22,41" id="路径_1559-2" node-id="133" stroke="none" target-height="617.9" target-width="470.60004" target-x="374.3" target-y="115.3"></path><path d="M 374.30 120.60 L 374.40 118.30 L 375.00 116.90 L 375.90 116.00 L 378.80 115.30 L 386.70 116.40 L 398.30 118.70 L 414.20 122.40 L 432.60 127.40 L 451.90 133.80 L 470.20 141.00 L 491.60 150.10 L 514.30 160.10 L 536.60 170.50 L 556.50 180.20 L 572.40 188.50 L 587.50 197.10 L 634.40 224.40 L 661.70 241.00 L 688.70 257.90 L 713.10 274.20 L 724.00 281.90 L 732.80 288.60 L 750.50 302.90 L 789.10 334.90 L 833.20 372.60 L 840.70 379.70 L 843.30 384.00 L 844.10 386.40 L 844.70 392.50 L 844.80 400.70 L 844.90 729.40 L 844.20 731.50 L 843.40 732.40 L 842.20 733.00 L 840.70 733.20 L 838.80 732.70 L 836.80 731.60 L 804.20 702.00 L 771.90 674.10 L 748.60 655.00 L 735.40 645.20 L 705.10 624.80 L 680.70 608.90 L 629.70 577.40 L 607.30 564.20 L 589.50 554.50 L 525.90 521.70 L 495.90 507.50 L 480.50 500.80 L 464.90 494.60 L 449.50 489.20 L 425.00 481.50 L 407.30 476.40 L 391.70 472.40 L 374.50 468.90 Z" fill="#ffffff" fill-rule="nonzero" filter="url(#路径_1559)" group-id="3,22,42,69" id="路径_1559-3" node-id="135" stroke="none" target-height="617.9" target-width="470.60004" target-x="374.3" target-y="115.3"></path><path d="M 501.80 249.50 L 501.70 247.10 L 502.50 244.50 L 503.50 243.60 L 505.60 243.10 L 528.20 249.10 L 543.10 253.90 L 558.40 260.10 L 570.70 266.20 L 604.70 284.20 L 622.40 294.20 L 638.00 303.70 L 644.60 308.10 L 686.10 339.10 L 693.50 345.00 L 705.90 356.00 L 713.60 363.70 L 715.60 366.70 L 716.20 368.60 L 716.80 374.10 L 716.40 597.30 L 716.20 598.80 L 715.40 601.10 L 714.70 602.20 L 713.60 602.90 L 711.80 603.10 L 708.50 601.70 L 689.60 585.80 L 667.20 568.40 L 656.60 560.60 L 648.20 554.80 L 637.70 548.20 L 608.90 530.80 L 586.00 518.10 L 562.80 507.00 L 538.60 496.70 L 524.90 491.80 L 514.90 488.60 L 511.40 487.10 L 508.70 485.50 L 506.20 483.60 L 503.40 480.00 L 502.50 478.10 L 502.10 474.80 L 501.80 249.50 Z" fill="url(#linear-gradient-10)" fill-rule="nonzero" group-id="3,23" id="路径_1560" node-id="136" stroke="none" target-height="359.99997" target-width="215.09998" target-x="501.7" target-y="243.1"></path><path d="M 518.60 271.60 L 518.80 267.70 L 519.30 266.30 L 521.00 264.90 L 523.50 265.00 L 530.50 267.20 L 553.90 276.40 L 566.70 282.00 L 576.80 287.10 L 604.00 302.10 L 631.20 318.10 L 641.30 324.60 L 674.20 347.00 L 692.70 360.10 L 696.30 363.00 L 697.70 366.00 L 698.50 371.60 L 698.60 376.00 L 698.30 562.90 L 697.90 564.50 L 696.40 566.50 L 694.60 567.10 L 691.90 566.40 L 690.10 565.40 L 680.10 557.50 L 669.60 549.90 L 646.60 534.30 L 628.90 522.90 L 604.00 507.70 L 590.70 500.20 L 578.70 493.90 L 526.70 469.90 L 522.10 466.80 L 520.10 464.10 L 518.90 459.70 L 518.70 455.80 L 518.60 271.60 Z" fill="url(#linear-gradient)" fill-rule="nonzero" group-id="3,24" id="路径_1561" node-id="137" stroke="#86b2e3" stroke-linecap="butt" stroke-width="1" target-height="302.19998" target-width="180" target-x="518.6" target-y="264.9"></path><path d="M 526.90 270.90 L 534.40 275.30 L 536.00 275.40 L 536.60 274.90 L 537.10 273.80 L 537.10 272.40 L 536.30 270.40 L 533.60 268.20 L 526.80 264.40 L 523.50 263.00 L 521.30 262.30 L 520.30 262.30 L 519.40 262.70 L 518.90 263.60 L 518.60 265.50 L 518.60 277.60 L 518.80 279.00 L 519.50 280.20 L 520.40 281.30 L 522.60 282.50 L 523.50 282.60 L 524.30 282.30 L 524.60 281.50 L 524.70 272.40 L 525.60 271.10 L 526.20 270.80 L 526.90 270.90 Z" fill="#ffffff" fill-rule="nonzero" group-id="3,25" id="路径_1562" node-id="138" stroke="none" target-height="20.300018" target-width="18.5" target-x="518.6" target-y="262.3"></path><path d="M 685.50 355.40 L 683.80 354.80 L 682.40 354.80 L 681.30 355.30 L 680.50 356.10 L 680.30 357.20 L 680.60 358.60 L 682.60 360.70 L 690.90 365.40 L 692.20 366.80 L 692.80 368.60 L 692.80 378.40 L 693.50 379.50 L 695.90 382.00 L 697.60 382.60 L 698.30 382.10 L 698.70 381.00 L 699.40 373.90 L 699.30 365.70 L 697.90 363.90 L 694.40 361.20 L 685.50 355.40 Z" fill="#ffffff" fill-rule="nonzero" group-id="3,26" id="路径_1563" node-id="139" stroke="none" target-height="27.800018" target-width="19.100037" target-x="680.3" target-y="354.8"></path><path d="M 518.70 448.10 L 518.70 461.90 L 519.50 464.90 L 521.60 467.10 L 533.50 473.70 L 535.00 473.30 L 535.90 472.60 L 536.60 470.90 L 535.80 469.40 L 526.80 463.60 L 525.30 462.30 L 525.30 451.50 L 524.70 450.50 L 523.30 448.60 L 521.60 447.10 L 520.20 447.00 L 518.70 448.10 Z" fill="#ffffff" fill-rule="nonzero" group-id="3,27" id="路径_1564" node-id="140" stroke="none" target-height="26.700012" target-width="17.899963" target-x="518.7" target-y="447"></path><path d="M 685.10 555.80 L 682.70 554.80 L 681.40 554.90 L 680.10 555.70 L 680.10 557.40 L 680.90 558.60 L 682.60 560.30 L 687.10 563.50 L 693.70 567.30 L 696.20 567.90 L 697.70 567.50 L 698.10 565.90 L 698.10 551.80 L 696.00 548.80 L 695.10 548.20 L 694.30 548.00 L 693.40 548.30 L 692.90 549.10 L 692.60 551.80 L 692.70 557.20 L 692.00 559.10 L 691.50 559.30 L 690.50 559.00 L 685.10 555.80 Z" fill="#ffffff" fill-rule="nonzero" group-id="3,28" id="路径_1565" node-id="141" stroke="none" target-height="19.900024" target-width="18" target-x="680.1" target-y="548"></path><path d="M 590.40 425.90 L 590.80 431.30 L 590.70 435.10 L 590.30 439.10 L 589.20 443.40 L 588.20 446.10 L 586.70 448.70 L 583.40 453.20 L 582.50 455.10 L 582.00 457.10 L 581.70 460.10 L 582.10 463.00 L 582.90 465.90 L 584.00 468.30 L 587.10 473.60 L 613.20 489.00 L 631.40 485.30 L 633.30 477.40 L 633.50 475.50 L 631.50 471.20 L 629.40 464.50 L 628.60 459.60 L 628.10 454.40 L 628.00 445.50 L 627.50 443.50 L 625.60 439.80 L 623.70 437.70 L 618.70 434.00 L 614.30 431.80 L 604.70 428.60 L 600.40 427.60 L 590.40 425.90 Z" fill="#d4e5ff" fill-rule="nonzero" group-id="3,29" id="路径_1566" node-id="142" stroke="none" target-height="63.100006" target-width="51.799988" target-x="581.7" target-y="425.9"></path><path d="M 586.50 417.60 L 584.80 415.00 L 582.50 410.10 L 580.40 404.30 L 579.30 398.90 L 579.40 396.00 L 580.40 393.30 L 581.80 392.60 L 585.10 395.50 L 584.10 382.10 L 586.50 374.30 L 591.20 369.80 L 597.60 375.30 L 632.20 400.90 L 635.50 420.50 L 634.00 426.20 L 638.20 425.40 L 639.50 425.40 L 640.60 425.80 L 641.50 427.10 L 641.80 432.60 L 641.60 435.10 L 641.10 437.60 L 639.40 440.80 L 636.50 443.30 L 634.30 444.30 L 631.50 445.00 L 628.90 449.40 L 625.70 452.70 L 623.60 454.10 L 621.10 455.00 L 617.40 455.30 L 612.50 453.90 L 609.80 452.60 L 604.20 448.50 L 600.90 445.10 L 597.50 440.90 L 594.30 435.90 L 591.50 430.60 L 588.90 424.50 L 586.50 417.60 Z" fill="#ebf0fa" fill-rule="nonzero" group-id="3,30" id="路径_1567" node-id="143" stroke="none" target-height="85.5" target-width="62.5" target-x="579.3" target-y="369.8"></path><path d="M 585.60 395.20 L 584.30 394.40 L 582.30 390.80 L 581.30 387.60 L 580.60 384.10 L 580.30 380.00 L 580.50 375.90 L 581.30 371.60 L 583.80 365.10 L 586.70 361.20 L 588.40 359.80 L 590.10 358.90 L 594.10 357.90 L 596.30 357.90 L 598.90 358.20 L 602.10 359.10 L 608.90 362.00 L 615.60 366.00 L 618.60 368.20 L 623.20 372.50 L 628.40 378.80 L 633.50 386.50 L 635.70 390.80 L 637.50 395.30 L 638.70 399.90 L 639.50 404.10 L 639.90 411.40 L 639.70 414.90 L 638.40 420.40 L 637.30 422.70 L 635.90 424.50 L 634.40 425.80 L 632.30 418.80 L 630.70 411.70 L 629.40 404.50 L 621.80 401.50 L 618.40 399.80 L 614.60 397.40 L 610.80 394.50 L 606.90 390.80 L 602.40 385.70 L 593.70 374.50 L 591.10 376.30 L 589.60 378.30 L 588.30 380.80 L 586.30 387.40 L 585.60 395.20 Z" fill="#afcdfd" fill-rule="nonzero" group-id="3,31" id="路径_1568" node-id="144" stroke="none" target-height="67.899994" target-width="59.600037" target-x="580.3" target-y="357.9"></path><g clip-path="url(#clip-path)" group-id="3,32" node-id="539"><path d="M 536.60 473.80 L 536.00 465.80 L 536.50 458.40 L 537.30 454.60 L 538.60 451.10 L 539.80 448.90 L 541.40 447.00 L 543.20 445.40 L 549.90 441.60 L 556.00 439.80 L 561.00 439.30 L 564.30 439.50 L 566.20 439.90 L 575.90 442.90 L 578.90 444.20 L 583.40 447.00 L 585.80 449.90 L 590.40 461.10 L 594.30 468.20 L 599.40 474.10 L 604.10 478.20 L 608.30 481.10 L 611.90 483.10 L 614.80 484.10 L 617.60 484.80 L 620.40 484.90 L 623.00 484.70 L 625.60 483.90 L 627.90 482.70 L 629.80 481.20 L 631.30 479.60 L 634.10 475.40 L 647.30 485.50 L 654.00 491.50 L 659.70 497.40 L 669.40 510.20 L 675.70 520.20 L 679.70 528.60 L 681.40 534.80 L 681.80 538.40 L 681.60 545.50 L 679.80 552.40 L 678.40 555.70 L 648.70 544.30 Z" fill="#9fc3ff" fill-rule="nonzero" group-id="3,32,43" id="路径_1569" node-id="146" stroke="none" target-height="116.400024" target-width="145.79999" target-x="536" target-y="439.3"></path></g><path d="M 663.20 289.90 L 662.10 289.40 L 660.10 287.40 L 658.60 284.10 L 658.70 268.40 L 659.00 267.60 L 659.70 267.10 L 661.10 267.00 L 663.20 268.20 L 664.90 270.30 L 665.70 272.10 L 665.70 288.50 L 665.30 289.30 L 664.60 289.80 L 663.20 289.90 Z M 649.20 287.90 L 648.10 287.40 L 646.10 285.40 L 644.60 282.10 L 644.70 255.40 L 645.00 254.60 L 645.70 254.10 L 647.10 254.00 L 649.20 255.20 L 650.90 257.30 L 651.70 259.10 L 651.70 286.50 L 651.30 287.30 L 650.60 287.80 L 649.20 287.90 Z M 634.20 284.90 L 633.10 284.40 L 631.10 282.40 L 629.60 279.10 L 629.60 241.60 L 630.00 239.60 L 630.70 239.10 L 632.10 239.00 L 634.20 240.20 L 635.90 242.30 L 636.70 244.10 L 636.70 283.50 L 635.60 284.80 L 634.20 284.90 Z M 620.20 270.90 L 619.10 270.40 L 617.10 268.40 L 615.60 265.10 L 615.70 238.40 L 616.00 237.60 L 616.70 237.10 L 618.10 237.00 L 620.20 238.20 L 621.90 240.30 L 622.70 242.10 L 622.70 269.50 L 621.60 270.80 L 620.20 270.90 Z M 606.20 256.90 L 605.10 256.40 L 603.10 254.40 L 601.60 251.10 L 601.70 235.40 L 602.00 234.60 L 602.70 234.10 L 604.10 234.00 L 606.20 235.20 L 607.90 237.30 L 608.70 239.10 L 608.70 255.50 L 608.30 256.30 L 607.60 256.80 L 606.20 256.90 Z" fill="url(#linear-gradient-12)" fill-rule="nonzero" group-id="3,33" id="联合_281" node-id="147" stroke="none" target-height="55.899994" target-width="64.10004" target-x="601.6" target-y="234"></path><path d="M 719.20 695.10 L 719.20 800.30 L 756.30 821.40 L 756.30 714.70 Z" fill="#1745fe" fill-opacity="0.65" fill-rule="nonzero" group-id="4,34,44" id="路径_1512" node-id="150" stroke="none" target-height="126.30005" target-width="37.099976" target-x="719.2" target-y="695.1"></path><path d="M 792.10 695.10 L 756.20 714.60 L 756.20 821.40 L 792.10 800.80 Z" fill="#1745fe" fill-opacity="0.65" fill-rule="nonzero" filter="url(#路径_1513)" group-id="4,34,45,70" id="路径_1513-4" node-id="152" stroke="none" target-height="126.30005" target-width="35.899963" target-x="756.2" target-y="695.1"></path><path d="M 719.20 801.10 L 756.10 820.60 L 792.10 800.70 L 756.10 778.90 Z" fill="#1c0cff" fill-rule="nonzero" group-id="4,34,46" id="路径_1583" node-id="153" stroke="none" target-height="41.69995" target-width="72.89996" target-x="719.2" target-y="778.9"></path><path d="M 719.20 695.10 L 756.10 714.60 L 792.80 695.10 L 755.90 673.30 Z" fill="#1745fe" fill-opacity="0.86" fill-rule="nonzero" group-id="4,34,47" id="路径_1514" node-id="154" stroke="none" target-height="41.299988" target-width="73.599976" target-x="719.2" target-y="673.3"></path><path d="M 719.20 695.10 L 719.20 800.30 L 756.30 821.40 L 756.30 714.70 Z" fill="url(#linear-gradient-13)" fill-opacity="0.83" fill-rule="nonzero" group-id="4,34,48" id="路径_1516" node-id="155" stroke="none" target-height="126.30005" target-width="37.099976" target-x="719.2" target-y="695.1"></path><path d="M 792.10 695.10 L 756.20 714.60 L 756.20 821.40 L 792.10 800.80 Z" fill="url(#linear-gradient-14)" fill-opacity="0.93" fill-rule="nonzero" group-id="4,34,49" id="路径_1517" node-id="156" stroke="none" target-height="126.30005" target-width="35.899963" target-x="756.2" target-y="695.1"></path><path d="M 719.20 695.10 L 756.10 714.60 L 792.80 695.10 L 756.10 672.90 Z" fill="#c4d7ff" fill-opacity="0.97" fill-rule="nonzero" group-id="4,34,50" id="路径_1518" node-id="157" stroke="none" target-height="41.69995" target-width="73.599976" target-x="719.2" target-y="672.9"></path><path d="M 756.10 714.60 L 719.20 695.10 L 720.50 694.30 L 756.10 713.10 L 791.50 694.30 L 792.80 695.10 L 756.10 714.60 Z" fill="#ffffff" fill-opacity="0.71" fill-rule="nonzero" group-id="4,34,51" id="减去_1" node-id="158" stroke="none" target-height="20.299988" target-width="73.599976" target-x="719.2" target-y="694.3"></path><path d="M 664.50 761.10 L 664.50 840.30 L 701.70 861.40 L 701.70 780.70 Z" fill="#176cfe" fill-opacity="0.46" fill-rule="nonzero" group-id="4,35,52" id="路径_1512-2" node-id="160" stroke="none" target-height="100.30005" target-width="37.200012" target-x="664.5" target-y="761.1"></path><path d="M 737.40 761.10 L 701.50 780.60 L 701.50 861.40 L 737.40 840.80 Z" fill="#176cfe" fill-opacity="0.46" fill-rule="nonzero" filter="url(#路径_1513-2)" group-id="4,35,53,71" id="路径_1513-5" node-id="162" stroke="none" target-height="100.30005" target-width="35.900024" target-x="701.5" target-y="761.1"></path><path d="M 664.50 841.10 L 701.50 860.60 L 737.40 840.50 L 701.50 818.90 Z" fill="#1b7af8" fill-opacity="0.57" fill-rule="nonzero" group-id="4,35,54" id="路径_1582" node-id="163" stroke="none" target-height="41.69995" target-width="72.900024" target-x="664.5" target-y="818.9"></path><path d="M 664.50 761.10 L 701.50 780.60 L 738.20 761.10 L 701.30 739.30 Z" fill="#1745fe" fill-opacity="0.46" fill-rule="nonzero" group-id="4,35,55" id="路径_1514-2" node-id="164" stroke="none" target-height="41.299988" target-width="73.70001" target-x="664.5" target-y="739.3"></path><path d="M 664.50 761.10 L 664.50 840.30 L 701.70 861.40 L 701.70 780.70 Z" fill="url(#linearGradient1)" fill-opacity="0.87" fill-rule="nonzero" group-id="4,35,56" id="路径_1516-2" node-id="165" stroke="none" target-height="100.30005" target-width="37.200012" target-x="664.5" target-y="761.1"></path><path d="M 737.40 761.10 L 701.50 780.60 L 701.50 861.40 L 737.40 840.80 Z" fill="url(#linearGradient2)" fill-opacity="0.92" fill-rule="nonzero" group-id="4,35,57" id="路径_1517-2" node-id="166" stroke="none" target-height="100.30005" target-width="35.900024" target-x="701.5" target-y="761.1"></path><path d="M 664.50 761.10 L 701.50 780.60 L 738.20 761.10 L 701.50 738.90 Z" fill="#c6d9ff" fill-opacity="0.97" fill-rule="nonzero" group-id="4,35,58" id="路径_1518-2" node-id="167" stroke="none" target-height="41.69995" target-width="73.70001" target-x="664.5" target-y="738.9"></path><path d="M 701.50 780.60 L 664.50 761.10 L 665.90 760.30 L 701.50 779.10 L 736.80 760.30 L 738.20 761.10 L 701.50 780.60 Z" fill="#ffffff" fill-opacity="0.43" fill-rule="nonzero" group-id="4,35,59" id="减去_1-2" node-id="168" stroke="none" target-height="20.299988" target-width="73.70001" target-x="664.5" target-y="760.3"></path><path d="M 608.50 820.10 L 608.50 881.30 L 645.70 902.40 L 645.70 839.70 Z" fill="#176cfe" fill-opacity="0.46" fill-rule="nonzero" group-id="4,36,60" id="路径_1512-3" node-id="170" stroke="none" target-height="82.30005" target-width="37.200012" target-x="608.5" target-y="820.1"></path><path d="M 681.40 820.10 L 645.50 839.60 L 645.50 902.40 L 681.40 881.80 Z" fill="#176cfe" fill-opacity="0.46" fill-rule="nonzero" filter="url(#路径_1513-3)" group-id="4,36,61,72" id="路径_1513-6" node-id="172" stroke="none" target-height="82.30005" target-width="35.900024" target-x="645.5" target-y="820.1"></path><path d="M 608.60 881.40 L 645.50 901.60 L 681.40 881.60 L 645.50 859.90 Z" fill="#0973ff" fill-opacity="0.8" fill-rule="nonzero" group-id="4,36,62" id="路径_1581" node-id="173" stroke="none" target-height="41.69995" target-width="72.80005" target-x="608.6" target-y="859.9"></path><path d="M 608.50 820.10 L 645.50 839.60 L 682.20 820.10 L 645.30 798.30 Z" fill="#1745fe" fill-opacity="0.46" fill-rule="nonzero" group-id="4,36,63" id="路径_1514-3" node-id="174" stroke="none" target-height="41.299988" target-width="73.70001" target-x="608.5" target-y="798.3"></path><path d="M 608.50 820.10 L 608.50 881.30 L 645.70 902.40 L 645.70 839.70 Z" fill="url(#linear-gradient-15)" fill-opacity="0.87" fill-rule="nonzero" group-id="4,36,64" id="路径_1516-3" node-id="175" stroke="none" target-height="82.30005" target-width="37.200012" target-x="608.5" target-y="820.1"></path><path d="M 681.40 820.10 L 645.50 839.60 L 645.50 902.40 L 681.40 881.80 Z" fill="url(#linear-gradient-16)" fill-opacity="0.92" fill-rule="nonzero" group-id="4,36,65" id="路径_1517-3" node-id="176" stroke="none" target-height="82.30005" target-width="35.900024" target-x="645.5" target-y="820.1"></path><path d="M 608.50 820.10 L 645.50 839.60 L 682.20 820.10 L 645.50 797.90 Z" fill="#c6d9ff" fill-opacity="0.97" fill-rule="nonzero" group-id="4,36,66" id="路径_1518-3" node-id="177" stroke="none" target-height="41.69995" target-width="73.70001" target-x="608.5" target-y="797.9"></path><path d="M 645.50 839.60 L 608.50 820.10 L 609.90 819.30 L 645.50 838.10 L 680.80 819.30 L 682.20 820.10 L 645.50 839.60 Z" fill="#ffffff" fill-opacity="0.43" fill-rule="nonzero" group-id="4,36,67" id="减去_1-3" node-id="178" stroke="none" target-height="20.299988" target-width="73.70001" target-x="608.5" target-y="819.3"></path></g></svg>