<?xml version="1.0" standalone="no"?><!DOCTYPE svg PUBLIC "-//W3C//DTD SVG 1.1//EN" "http://www.w3.org/Graphics/SVG/1.1/DTD/svg11.dtd"><svg height="1024" node-id="1" sillyvg="true" template-height="1024" template-width="1024" version="1.1" viewBox="0 0 1024 1024" width="1024" xmlns="http://www.w3.org/2000/svg" xmlns:xlink="http://www.w3.org/1999/xlink"><defs node-id="89"><linearGradient gradientUnits="objectBoundingBox" id="linear-gradient" node-id="3" spreadMethod="pad" x1="-0.015" x2="1" y1="0.076" y2="0.05"><stop offset="0" stop-color="#ecf1fc"></stop><stop offset="1" stop-color="#c4ddfc"></stop></linearGradient><linearGradient gradientUnits="objectBoundingBox" id="linear-gradient-2" node-id="6" spreadMethod="pad" x1="0.01" x2="0.984" y1="0.5" y2="0.5"><stop offset="0" stop-color="#ebf0fc"></stop><stop offset="1" stop-color="#c4ddfc"></stop></linearGradient><linearGradient gradientUnits="objectBoundingBox" id="linear-gradient-3" node-id="9" spreadMethod="pad" x1="0.901" x2="0" y1="0.026" y2="1"><stop offset="0" stop-color="#7fe7cf"></stop><stop offset="1" stop-color="#b5f6e7"></stop></linearGradient><linearGradient gradientUnits="objectBoundingBox" id="linear-gradient-4" node-id="12" spreadMethod="pad" x1="0.046" x2="0.947" y1="0.212" y2="0.737"><stop offset="0" stop-color="#49ebc6"></stop><stop offset="1" stop-color="#b1f5e6"></stop></linearGradient><linearGradient gradientUnits="objectBoundingBox" id="linear-gradient-5" node-id="15" spreadMethod="pad" x1="0.5" x2="0.5" y1="0" y2="1"><stop offset="0" stop-color="#083c92"></stop><stop offset="1" stop-color="#1453c5"></stop></linearGradient><linearGradient gradientUnits="objectBoundingBox" id="linear-gradient-6" node-id="18" spreadMethod="pad" x1="0.212" x2="0.799" y1="0" y2="0.972"><stop offset="0" stop-color="#0042e4"></stop><stop offset="1" stop-color="#4c8cff"></stop></linearGradient><linearGradient gradientUnits="objectBoundingBox" id="linear-gradient-7" node-id="21" spreadMethod="pad" x1="1" x2="-0.235" y1="0.223" y2="0.77"><stop offset="0" stop-color="#b6d3fc"></stop><stop offset="1" stop-color="#71a4fc"></stop></linearGradient><linearGradient gradientUnits="objectBoundingBox" id="linear-gradient-8" node-id="30" spreadMethod="pad" x1="0.813" x2="0.05" y1="0.137" y2="0.863"><stop offset="0" stop-color="#5e9dfc"></stop><stop offset="0.074" stop-color="#92c5ff"></stop><stop offset="0.147" stop-color="#67a4fc"></stop><stop offset="1" stop-color="#2e77fc"></stop></linearGradient><linearGradient gradientUnits="objectBoundingBox" id="linear-gradient-9" node-id="35" spreadMethod="pad" x1="0.5" x2="0.461" y1="0.313" y2="0.628"><stop offset="0" stop-color="#e0ebfc"></stop><stop offset="1" stop-color="#bed7fb"></stop></linearGradient><linearGradient gradientUnits="objectBoundingBox" id="linear-gradient-10" node-id="38" spreadMethod="pad" x1="0" x2="0.936" y1="0.036" y2="0.893"><stop offset="0" stop-color="#bcd8fe"></stop><stop offset="1" stop-color="#6ba5fc"></stop></linearGradient><linearGradient gradientUnits="objectBoundingBox" id="linear-gradient-11" node-id="41" spreadMethod="pad" x1="0.063" x2="0.942" y1="0.055" y2="0.948"><stop offset="0" stop-color="#b8d7ff"></stop><stop offset="1" stop-color="#6da6fc"></stop></linearGradient><filter height="312.99997" id="矩形_2205" node-id="24" width="195" x="464.164" y="373.6"><feOffset color-interpolation-filters="linearRGB" dx="30" dy="20" in="SourceGraphic" result="result1"></feOffset><feGaussianBlur color-interpolation-filters="linearRGB" in="result1" result="blur" stdDeviation="15 15"></feGaussianBlur><feFlood color-interpolation-filters="linearRGB" flood-color="#0041c4" flood-opacity="0.239" result="result3"></feFlood><feComposite color-interpolation-filters="linearRGB" in="result3" in2="blur" operator="in" result="result4"></feComposite><feComposite color-interpolation-filters="linearRGB" in="SourceGraphic" in2="result4" operator="over" result="result5"></feComposite></filter><clipPath id="clip-文档储存" node-id="44"><path d="M 0.00 0.00 L 1024.00 0.00 L 1024.00 1024.00 L 0.00 1024.00 Z" fill="#000000" fill-rule="nonzero" node-id="174" stroke="none" target-height="1024" target-width="1024" target-x="0" target-y="0"></path></clipPath></defs><g clip-path="url(#clip-文档储存)" id="文档储存" node-id="46"><path d="M 0.00 0.00 L 1024.00 0.00 L 1024.00 1024.00 L 0.00 1024.00 Z" fill="#ffffff" fill-rule="nonzero" node-id="179" stroke="none" target-height="1024" target-width="1024" target-x="0" target-y="0"></path><path d="M 150.90 655.10 L 150.90 682.10 L 151.30 683.30 L 152.60 684.70 L 460.40 838.00 L 510.30 863.10 L 516.30 865.30 L 520.40 866.10 L 524.70 866.60 L 529.30 866.40 L 532.20 865.90 L 535.10 865.00 L 564.10 850.30 L 660.50 802.60 L 895.70 686.90 L 895.40 656.10 Z" fill="url(#linear-gradient)" fill-rule="nonzero" group-id="1,4" id="路径_1645" node-id="49" stroke="none" target-height="211.5" target-width="744.80005" target-x="150.9" target-y="655.1"></path><path d="M 155.00 649.80 L 153.20 651.20 L 152.40 652.30 L 151.80 653.60 L 151.60 655.00 L 152.50 657.20 L 155.00 658.80 L 513.40 834.40 L 519.30 836.20 L 525.30 836.80 L 528.40 836.60 L 532.40 835.40 L 559.40 821.80 L 655.00 775.00 L 892.10 659.70 L 893.70 658.40 L 894.90 656.60 L 895.10 655.50 L 894.70 654.50 L 893.90 653.60 L 838.60 627.20 L 513.40 469.60 Z" fill="url(#linear-gradient-2)" fill-rule="nonzero" group-id="1,5" id="路径_1647" node-id="50" stroke="#ffffff" stroke-linecap="butt" stroke-width="4" target-height="367.19998" target-width="743.5" target-x="151.6" target-y="469.6"></path><path d="M 129.20 587.00 L 128.30 364.30 L 128.40 364.00 L 128.70 364.10 L 250.50 302.10 L 261.70 307.60 L 138.60 368.40 L 139.10 591.60 Z" fill="url(#linear-gradient-3)" fill-rule="nonzero" group-id="2,6" id="联合_292" node-id="52" stroke="none" target-height="289.49997" target-width="133.40001" target-x="128.3" target-y="302.1"></path><path d="M 261.50 529.50 L 261.70 307.40 L 138.50 368.30 L 139.20 591.90 Z" fill="url(#linear-gradient-4)" fill-rule="nonzero" group-id="2,7" id="路径_1629" node-id="53" stroke="none" target-height="284.50003" target-width="123.20001" target-x="138.5" target-y="307.4"></path><path d="M 154.90 415.00 L 154.90 425.90 L 246.90 381.10 L 246.90 370.20 Z" fill="#ffffff" fill-rule="nonzero" group-id="2,8" id="路径_1630" node-id="54" stroke="none" target-height="55.69998" target-width="92" target-x="154.9" target-y="370.2"></path><path d="M 243.50 488.60 L 240.80 491.70 L 238.00 494.40 L 235.20 496.50 L 232.10 498.20 L 229.20 499.30 L 226.40 499.90 L 224.30 500.00 L 220.60 499.10 L 219.00 498.20 L 216.60 495.40 L 215.30 491.60 L 215.10 488.80 L 215.40 485.60 L 216.20 482.20 L 217.50 478.90 L 219.20 475.50 L 221.50 472.10 L 224.20 468.90 L 227.00 466.30 L 229.80 464.20 L 232.90 462.40 L 235.80 461.30 L 238.60 460.70 L 240.70 460.60 L 244.30 461.50 L 245.90 462.40 L 248.40 465.20 L 249.60 469.10 L 249.90 471.90 L 249.60 475.00 L 248.80 478.40 L 247.50 481.80 L 245.80 485.10 L 243.50 488.60 Z" fill="#ffffff" fill-rule="nonzero" group-id="2,9" id="椭圆_688" node-id="55" stroke="none" target-height="39.399994" target-width="34.799988" target-x="215.1" target-y="460.6"></path><path d="M 154.90 445.60 L 154.90 456.50 L 246.90 411.70 L 246.90 400.80 Z" fill="#ffffff" fill-rule="nonzero" group-id="2,10" id="路径_1631" node-id="56" stroke="none" target-height="55.700012" target-width="92" target-x="154.9" target-y="400.8"></path><path d="M 154.90 472.50 L 154.90 483.40 L 246.90 438.50 L 246.90 427.60 Z" fill="#ffffff" fill-rule="nonzero" group-id="2,11" id="路径_1632" node-id="57" stroke="none" target-height="55.799988" target-width="92" target-x="154.9" target-y="427.6"></path><path d="M 154.90 501.40 L 154.90 512.30 L 206.20 485.80 L 206.20 474.90 Z" fill="#ffffff" fill-rule="nonzero" group-id="2,12" id="路径_1633" node-id="58" stroke="none" target-height="37.399994" target-width="51.300003" target-x="154.9" target-y="474.9"></path><path d="M 622.20 260.60 L 630.30 261.40 L 637.70 263.70 L 644.50 267.40 L 650.40 272.30 L 655.30 278.20 L 659.00 285.00 L 660.40 288.70 L 661.30 292.50 L 662.20 300.60 L 662.20 448.60 L 661.30 456.70 L 660.40 460.50 L 657.30 467.70 L 653.00 474.00 L 647.60 479.50 L 641.30 483.80 L 637.70 485.50 L 630.30 487.80 L 626.30 488.40 L 622.20 488.60 L 618.00 488.40 L 610.20 486.80 L 603.10 483.80 L 596.70 479.50 L 591.30 474.00 L 589.00 471.00 L 585.30 464.20 L 583.00 456.70 L 582.20 448.60 L 582.20 300.60 L 583.00 292.50 L 584.00 288.70 L 587.00 281.50 L 591.30 275.20 L 596.70 269.70 L 603.10 265.40 L 610.20 262.40 L 618.00 260.80 L 622.20 260.60 Z" fill="url(#linear-gradient-5)" fill-rule="nonzero" group-id="3,13" id="矩形_2204" node-id="60" stroke="none" target-height="228" target-width="80" target-x="582.2" target-y="260.6"></path><path d="M 572.00 382.40 L 697.20 444.80 L 708.20 450.80 L 711.80 453.90 L 714.20 457.80 L 715.00 460.10 L 715.50 463.00 L 715.70 466.60 L 717.60 683.80 L 716.70 686.90 L 715.60 688.80 L 713.50 691.40 L 708.20 695.50 L 702.90 698.00 L 699.80 697.70 L 696.20 696.60 L 683.00 690.90 L 665.40 682.30 L 645.20 671.80 L 604.70 649.90 L 572.90 632.10 Z" fill="url(#linear-gradient-6)" fill-rule="nonzero" group-id="3,14,20" id="路径_1636" node-id="62" stroke="none" target-height="315.6" target-width="145.59998" target-x="572" target-y="382.4"></path><path d="M 569.80 395.30 L 697.70 454.60 L 701.90 457.40 L 703.90 459.30 L 705.50 461.80 L 706.30 463.60 L 706.80 468.20 L 706.60 520.00 L 706.60 692.50 L 706.10 695.60 L 705.40 697.00 L 704.10 698.00 L 703.10 698.40 L 699.50 698.30 L 696.20 697.40 L 691.30 695.20 L 570.70 635.60 Z" fill="url(#linear-gradient-7)" fill-rule="nonzero" group-id="3,14,21" id="路径_1637" node-id="63" stroke="none" target-height="303.10004" target-width="137" target-x="569.8" target-y="395.3"></path><path d="M 578.70 443.00 L 686.00 497.00 L 686.00 551.90 L 578.70 498.50 Z" fill="#cce1fe" fill-rule="nonzero" group-id="3,14,22" id="路径_1638" node-id="64" stroke="none" target-height="108.900024" target-width="107.29999" target-x="578.7" target-y="443"></path><path d="M 578.70 557.80 L 583.50 559.60 L 608.00 571.00 L 684.30 608.60 L 684.30 630.50 L 578.70 576.50 Z" fill="#74a3f5" fill-rule="nonzero" group-id="3,14,23" id="路径_1639" node-id="65" stroke="none" target-height="72.70001" target-width="105.599976" target-x="578.7" target-y="557.8"></path><path d="M 637.20 545.00 L 640.40 551.10 L 641.80 557.10 L 641.80 559.90 L 641.50 562.30 L 640.70 564.60 L 639.50 566.40 L 637.90 567.80 L 636.00 568.70 L 633.80 569.00 L 631.40 568.80 L 629.10 568.10 L 626.60 567.00 L 624.00 565.30 L 619.40 560.80 L 617.30 557.90 L 615.50 554.80 L 613.30 548.80 L 612.80 545.70 L 612.70 543.00 L 613.10 540.60 L 613.90 538.30 L 615.00 536.50 L 616.60 535.10 L 618.60 534.20 L 620.70 533.80 L 623.10 534.00 L 625.50 534.70 L 627.90 535.90 L 630.50 537.60 L 632.90 539.60 L 637.20 545.00 Z" fill="#a1c3fe" fill-rule="nonzero" group-id="3,14,24" id="椭圆_689" node-id="66" stroke="none" target-height="35.200012" target-width="29.099976" target-x="612.7" target-y="533.8"></path><path d="M 594.20 521.00 L 597.30 527.10 L 598.70 533.10 L 598.70 535.90 L 598.40 538.30 L 597.60 540.60 L 596.40 542.40 L 594.80 543.80 L 592.90 544.70 L 590.80 545.00 L 588.30 544.80 L 586.00 544.10 L 583.50 543.00 L 581.00 541.30 L 576.40 536.80 L 574.20 533.90 L 572.40 530.80 L 570.20 524.80 L 569.70 521.70 L 569.70 519.00 L 570.00 516.60 L 570.80 514.30 L 572.00 512.50 L 573.60 511.10 L 575.50 510.20 L 577.60 509.80 L 580.10 510.00 L 582.40 510.70 L 584.90 511.90 L 587.40 513.60 L 589.80 515.60 L 594.20 521.00 Z" fill="#6c9bfc" fill-rule="nonzero" group-id="3,14,25" id="椭圆_690" node-id="67" stroke="none" target-height="35.200012" target-width="29" target-x="569.7" target-y="509.8"></path><path d="M 681.50 566.60 L 684.60 572.80 L 686.00 578.80 L 686.10 581.50 L 685.80 583.90 L 685.00 586.20 L 683.80 588.00 L 682.20 589.40 L 680.20 590.30 L 678.10 590.70 L 675.70 590.50 L 673.30 589.80 L 670.90 588.60 L 668.30 586.90 L 663.70 582.50 L 661.60 579.60 L 659.80 576.40 L 657.60 570.40 L 657.10 567.40 L 657.00 564.70 L 657.30 562.20 L 658.10 559.90 L 659.30 558.10 L 660.90 556.70 L 662.90 555.80 L 665.00 555.50 L 667.40 555.70 L 669.80 556.40 L 672.20 557.50 L 674.80 559.20 L 677.10 561.30 L 681.50 566.60 Z" fill="#c7defd" fill-rule="nonzero" group-id="3,14,26" id="椭圆_691" node-id="68" stroke="none" target-height="35.200012" target-width="29.099976" target-x="657" target-y="555.5"></path><path d="M 479.20 398.60 L 584.20 398.60 L 584.20 621.60 L 479.20 621.60 Z" fill="#3380f3" fill-rule="nonzero" filter="url(#矩形_2205)" group-id="3,14,27,40" id="矩形_2205-2" node-id="70" stroke="none" target-height="222.99997" target-width="105" target-x="479.2" target-y="398.6"></path><path d="M 366.20 625.50 L 365.90 209.80 L 366.70 201.20 L 367.80 196.00 L 369.50 190.30 L 371.70 184.60 L 374.60 178.90 L 376.80 175.30 L 382.30 168.80 L 385.50 165.90 L 389.00 163.50 L 393.00 161.50 L 398.20 159.60 L 402.90 158.30 L 407.20 157.60 L 411.60 157.40 L 419.00 158.00 L 424.10 159.20 L 428.00 160.60 L 433.80 163.20 L 625.80 260.90 L 617.70 261.30 L 609.60 263.00 L 605.20 264.60 L 600.70 266.80 L 595.00 270.70 L 592.30 273.30 L 589.90 276.20 L 587.70 279.50 L 585.80 283.40 L 584.30 287.60 L 583.20 292.40 L 582.60 297.90 L 582.30 727.20 L 581.30 734.70 L 580.10 738.70 L 578.50 742.80 L 576.10 747.20 L 574.20 750.00 L 569.20 755.20 L 566.10 757.40 L 562.50 759.40 L 558.30 761.00 L 555.10 761.90 L 547.50 762.80 L 542.90 762.80 L 536.90 762.20 L 531.90 761.20 L 527.70 759.80 L 523.80 757.90 L 520.40 755.70 L 517.70 753.40 L 513.30 748.00 L 511.70 745.30 L 509.80 741.20 L 508.70 737.40 L 508.00 733.90 L 507.60 729.00 L 507.60 697.50 Z" fill="url(#linear-gradient-8)" fill-rule="nonzero" group-id="3,15" id="路径_1634" node-id="71" stroke="#ffffff" stroke-linecap="butt" stroke-width="4" target-height="605.4" target-width="259.9" target-x="365.9" target-y="157.4"></path><path d="M 312.80 595.90 L 307.60 603.00 L 305.50 606.40 L 301.50 615.00 L 299.90 619.80 L 299.30 623.10 L 298.90 629.70 L 299.40 633.00 L 300.30 636.30 L 301.80 639.60 L 303.80 642.50 L 306.50 645.50 L 310.00 648.40 L 322.30 655.90 L 342.00 666.40 L 366.90 679.10 L 424.50 707.30 L 519.10 752.00 L 515.90 748.20 L 511.90 742.00 L 509.90 738.10 L 508.40 734.00 L 507.40 729.50 L 507.10 725.70 L 507.20 717.00 L 508.40 704.60 L 509.70 696.50 Z" fill="#ffffff" fill-rule="nonzero" group-id="3,16" id="路径_1649" node-id="72" stroke="none" target-height="156.09998" target-width="220.19998" target-x="298.9" target-y="595.9"></path><path d="M 311.10 597.40 L 306.20 604.80 L 304.30 608.40 L 300.60 617.30 L 299.30 622.20 L 298.50 629.00 L 298.60 632.50 L 299.10 635.80 L 300.10 639.20 L 301.70 642.50 L 303.70 645.50 L 306.50 648.50 L 310.00 651.40 L 314.60 654.40 L 330.90 663.70 L 366.50 682.30 L 423.50 710.60 L 517.00 755.70 L 512.40 748.80 L 510.70 745.40 L 508.90 741.40 L 507.50 737.20 L 506.60 732.70 L 506.10 724.30 L 506.10 715.00 L 507.10 697.20 Z" fill="url(#linear-gradient-9)" fill-rule="nonzero" group-id="3,17" id="路径_1635" node-id="73" stroke="none" target-height="158.29999" target-width="218.5" target-x="298.5" target-y="597.4"></path><path d="M 352.00 236.50 L 361.50 232.20 L 365.90 230.80 L 368.90 230.50 L 432.30 261.20 L 543.90 316.40 L 553.20 321.30 L 555.40 322.90 L 557.20 324.70 L 558.70 326.90 L 559.80 329.60 L 560.50 333.20 L 560.90 337.40 L 561.10 426.50 L 560.90 432.40 L 560.50 435.30 L 558.60 440.30 L 555.60 444.00 L 553.70 445.50 L 551.20 446.70 L 548.00 447.60 L 545.50 447.80 L 543.40 447.60 L 541.40 446.90 L 538.80 445.30 L 536.60 443.30 L 534.90 441.10 L 532.70 437.50 L 533.00 454.00 L 532.70 463.90 L 531.40 464.70 L 525.40 465.40 L 506.30 410.50 L 536.50 341.40 Z" fill="url(#linear-gradient-10)" fill-rule="nonzero" group-id="3,18,28" id="路径_1640" node-id="75" stroke="none" target-height="234.9" target-width="209.09998" target-x="352" target-y="230.5"></path><path d="M 346.20 244.60 L 346.30 242.90 L 346.90 241.00 L 347.90 239.20 L 349.40 237.70 L 352.00 236.50 L 353.50 236.20 L 357.00 236.90 L 401.90 259.30 L 542.30 327.50 L 546.30 329.60 L 547.80 331.00 L 549.10 332.80 L 550.20 335.30 L 550.90 339.50 L 550.20 441.00 L 549.90 443.10 L 549.40 444.30 L 548.40 445.30 L 546.20 445.90 L 544.30 445.80 L 539.90 444.50 L 523.60 436.20 L 524.50 465.70 L 498.10 425.80 L 367.20 361.50 L 355.20 354.90 L 351.10 351.50 L 348.20 347.50 L 347.20 345.30 L 345.80 339.20 L 345.50 331.20 L 345.40 303.30 L 346.20 244.60 Z" fill="#edf3fa" fill-rule="nonzero" group-id="3,18,29" id="路径_1641" node-id="76" stroke="none" target-height="229.50002" target-width="205.50003" target-x="345.4" target-y="236.2"></path><path d="M 412.90 298.60 L 415.30 302.80 L 417.20 307.10 L 418.60 311.30 L 419.60 315.60 L 420.10 319.70 L 420.10 323.60 L 419.70 327.50 L 418.80 331.00 L 417.50 334.20 L 415.80 337.10 L 413.60 339.60 L 410.90 341.60 L 407.90 343.10 L 404.70 344.00 L 401.40 344.30 L 397.90 344.10 L 394.40 343.30 L 390.70 342.00 L 387.20 340.20 L 383.70 338.00 L 380.30 335.20 L 377.10 332.10 L 374.10 328.60 L 371.30 324.50 L 368.90 320.20 L 367.00 316.00 L 365.60 311.80 L 364.60 307.50 L 364.20 303.40 L 364.10 299.40 L 364.50 295.50 L 365.40 292.00 L 366.70 288.90 L 368.40 285.90 L 370.60 283.50 L 373.30 281.40 L 376.30 280.00 L 379.50 279.10 L 382.90 278.70 L 386.30 279.00 L 389.80 279.70 L 393.50 281.10 L 397.00 282.80 L 400.50 285.10 L 403.90 287.90 L 407.10 291.00 L 410.10 294.50 L 412.90 298.60 Z" fill="#c1ddff" fill-rule="nonzero" group-id="3,18,30" id="椭圆_692" node-id="77" stroke="none" target-height="65.599976" target-width="56" target-x="364.1" target-y="278.7"></path><path d="M 521.80 352.60 L 521.80 361.00 L 435.10 319.00 L 435.10 309.40 Z" fill="#adcffc" fill-rule="nonzero" group-id="3,18,31" id="路径_1642" node-id="78" stroke="none" target-height="51.600006" target-width="86.69998" target-x="435.1" target-y="309.4"></path><path d="M 521.80 374.00 L 521.80 382.40 L 435.10 340.40 L 435.10 330.80 Z" fill="#adcffc" fill-rule="nonzero" group-id="3,18,32" id="路径_1643" node-id="79" stroke="none" target-height="51.600006" target-width="86.69998" target-x="435.1" target-y="330.8"></path><path d="M 486.50 381.00 L 486.50 389.40 L 435.10 364.30 L 435.10 354.60 Z" fill="#3786fb" fill-rule="nonzero" group-id="3,18,33" id="路径_1644" node-id="80" stroke="none" target-height="34.799988" target-width="51.399994" target-x="435.1" target-y="354.6"></path><path d="M 353.10 424.20 L 362.40 419.90 L 367.40 418.50 L 368.90 418.50 L 432.30 449.20 L 550.60 507.80 L 555.40 510.90 L 557.20 512.70 L 558.70 514.90 L 559.80 517.60 L 560.50 521.20 L 560.90 525.40 L 560.90 620.40 L 560.50 623.10 L 559.40 625.70 L 557.10 628.80 L 553.30 631.30 L 550.80 632.30 L 547.50 633.10 L 545.10 633.40 L 541.00 632.80 L 538.50 631.60 L 534.70 628.30 L 532.70 625.50 L 402.10 562.30 L 384.00 582.90 L 373.10 582.90 L 394.50 557.40 L 384.00 527.50 Z" fill="url(#linear-gradient-11)" fill-rule="nonzero" group-id="3,19,34" id="路径_1640-2" node-id="82" stroke="none" target-height="214.90002" target-width="207.80002" target-x="353.1" target-y="418.5"></path><path d="M 346.20 432.60 L 346.30 430.90 L 346.90 429.00 L 347.90 427.20 L 349.40 425.70 L 352.00 424.50 L 353.50 424.20 L 357.00 424.90 L 401.90 447.30 L 542.30 515.50 L 546.30 517.60 L 547.80 519.00 L 549.10 520.80 L 550.20 523.30 L 550.90 527.50 L 550.20 629.00 L 549.90 631.10 L 549.40 632.30 L 547.50 633.70 L 544.30 633.80 L 539.90 632.50 L 493.10 609.20 L 392.40 560.00 L 373.40 583.60 L 373.40 552.10 L 365.00 548.50 L 357.50 544.30 L 352.60 541.00 L 349.60 537.70 L 348.20 535.50 L 346.40 530.50 L 345.80 527.20 L 345.50 519.20 L 345.40 506.70 L 346.20 432.60 Z" fill="#edf3fa" fill-rule="nonzero" group-id="3,19,35" id="路径_1641-2" node-id="83" stroke="none" target-height="209.59998" target-width="205.50003" target-x="345.4" target-y="424.2"></path><path d="M 520.90 540.60 L 523.30 544.80 L 525.20 549.10 L 526.60 553.30 L 527.60 557.60 L 528.10 561.70 L 528.10 565.60 L 527.70 569.50 L 526.80 573.00 L 525.50 576.20 L 523.80 579.10 L 521.60 581.60 L 518.90 583.60 L 515.90 585.10 L 512.70 586.00 L 509.40 586.30 L 505.90 586.10 L 502.40 585.30 L 498.70 584.00 L 495.20 582.20 L 491.70 580.00 L 488.30 577.20 L 485.10 574.10 L 482.10 570.60 L 479.30 566.50 L 476.90 562.20 L 475.00 558.00 L 473.60 553.80 L 472.60 549.50 L 472.20 545.40 L 472.10 541.40 L 472.50 537.50 L 473.40 534.00 L 474.70 530.90 L 476.40 527.90 L 478.60 525.50 L 481.30 523.40 L 484.30 522.00 L 487.50 521.10 L 490.90 520.70 L 494.30 521.00 L 497.80 521.70 L 501.50 523.10 L 505.00 524.80 L 508.50 527.10 L 511.90 529.90 L 515.10 533.00 L 518.10 536.50 L 520.90 540.60 Z" fill="#c1ddff" fill-rule="nonzero" group-id="3,19,36" id="椭圆_692-2" node-id="84" stroke="none" target-height="65.599976" target-width="55.99997" target-x="472.1" target-y="520.7"></path><path d="M 457.10 509.60 L 457.10 518.00 L 370.40 476.00 L 370.40 466.40 Z" fill="#adcffc" fill-rule="nonzero" group-id="3,19,37" id="路径_1642-2" node-id="85" stroke="none" target-height="51.600006" target-width="86.70001" target-x="370.4" target-y="466.4"></path><path d="M 457.10 531.00 L 457.10 539.40 L 370.40 497.40 L 370.40 487.80 Z" fill="#adcffc" fill-rule="nonzero" group-id="3,19,38" id="路径_1643-2" node-id="86" stroke="none" target-height="51.600037" target-width="86.70001" target-x="370.4" target-y="487.8"></path><path d="M 421.80 538.00 L 421.80 546.40 L 370.40 521.30 L 370.40 511.60 Z" fill="#3786fb" fill-rule="nonzero" group-id="3,19,39" id="路径_1644-2" node-id="87" stroke="none" target-height="34.80002" target-width="51.399994" target-x="370.4" target-y="511.6"></path></g></svg>